<svg width="80" height="80" viewBox="0 0 80 80" fill="none" xmlns="http://www.w3.org/2000/svg">
<path d="M40 75C30.7174 75 21.815 71.3125 15.2513 64.7487C8.68749 58.185 5 49.2826 5 40C5 30.7174 8.68749 21.815 15.2513 15.2513C21.815 8.68749 30.7174 5 40 5C49.2826 5 58.185 8.68749 64.7487 15.2513C71.3125 21.815 75 30.7174 75 40C75 49.2826 71.3125 58.185 64.7487 64.7487C58.185 71.3125 49.2826 75 40 75ZM40 80C50.6087 80 60.7828 75.7857 68.2843 68.2843C75.7857 60.7828 80 50.6087 80 40C80 29.3913 75.7857 19.2172 68.2843 11.7157C60.7828 4.21427 50.6087 0 40 0C29.3913 0 19.2172 4.21427 11.7157 11.7157C4.21427 19.2172 0 29.3913 0 40C0 50.6087 4.21427 60.7828 11.7157 68.2843C19.2172 75.7857 29.3913 80 40 80Z" fill="url(#paint0_linear)"/>
<path d="M54.85 24.8499C54.8144 24.8844 54.781 24.9211 54.75 24.9599L37.385 47.0849L26.92 36.6149C26.2091 35.9525 25.2689 35.5919 24.2974 35.609C23.3259 35.6261 22.399 36.0197 21.7119 36.7068C21.0248 37.3938 20.6313 38.3208 20.6141 39.2923C20.597 40.2638 20.9576 41.204 21.62 41.9149L34.85 55.1499C35.2064 55.5056 35.6308 55.786 36.0979 55.9741C36.565 56.1623 37.0653 56.2545 37.5687 56.2452C38.0722 56.2358 38.5687 56.1252 39.0285 55.9198C39.4883 55.7145 39.902 55.4186 40.245 55.0499L60.205 30.0999C60.8847 29.3865 61.2563 28.4344 61.2395 27.4492C61.2227 26.4641 60.8189 25.5251 60.1153 24.8353C59.4117 24.1456 58.465 23.7604 57.4797 23.7631C56.4944 23.7659 55.5498 24.1562 54.85 24.8499Z" fill="url(#paint1_linear)"/>
<defs>
<linearGradient id="paint0_linear" x1="40" y1="0" x2="40" y2="80" gradientUnits="userSpaceOnUse">
<stop stop-color="#0236DC"/>
<stop offset="1" stop-color="#02EB2E"/>
</linearGradient>
<linearGradient id="paint1_linear" x1="40.9268" y1="23.7631" x2="40.9268" y2="56.2458" gradientUnits="userSpaceOnUse">
<stop stop-color="#0236DC"/>
<stop offset="1" stop-color="#02EB2E"/>
</linearGradient>
</defs>
</svg>
